<svg width="217px" height="216px" viewBox="0 0 217 216" version="1.1" xmlns="http://www.w3.org/2000/svg" xmlns:xlink="http://www.w3.org/1999/xlink">
  <path d="M108.403742,16.7389888 C101.467542,6.41324076 90.1217018,-7.33994357e-13 78.545587,-7.33994357e-13 C58.7161909,-7.33994357e-13 43.1673102,15.7511776 43.1673102,35.8646501 C43.1673102,37.7972307 43.5783602,40.500261 44.3294411,43.8661364 C42.5066173,43.4787594 39.0977,42.8352832 36.2763045,42.8352832 C16.1714404,42.8352832 0.411654431,58.3023844 0.411654431,78.0543051 C0.411654431,89.6777659 6.89376221,101.038671 17.3185066,107.987784 C6.79476587,115.020827 0.493434011,125.990052 0.493434011,137.520972 C0.493434011,157.036163 16.5954029,172.901401 36.3753009,172.901401 C38.7899506,172.901401 41.7275592,172.335401 44.2734866,171.778008 C43.5675997,175.008302 43.1673102,177.726397 43.1673102,179.689106 C43.1673102,199.802579 58.7161909,215.553757 78.545587,215.553757 C90.2981735,215.553757 101.263094,209.42244 108.136882,199.156951 C114.75242,208.981261 126.636284,215.553757 138.027319,215.553757 C157.787848,215.553757 173.246341,199.802579 173.246341,179.689106 C173.246341,177.074312 172.678188,173.921494 172.219792,171.778008 C175.587819,172.49896 178.284393,172.901401 180.208366,172.901401 C199.981807,172.901401 216.066559,157.036163 216.066559,137.520972 C216.066559,125.882447 209.803965,114.575344 199.684818,107.766118 C209.803965,100.9655 216.066559,89.6971348 216.066559,78.030632 C216.066559,58.6187422 199.904332,42.8159144 180.03835,42.8159144 C177.554833,42.8159144 174.548358,43.446478 172.198271,43.9586764 C172.589952,42.1250922 173.246341,38.6473079 173.246341,35.8646501 C173.246341,15.7511776 157.787848,-7.33994357e-13 138.027319,-7.33994357e-13 C126.520071,-7.33994357e-13 115.2969,6.40893657 108.403742,16.7389888 L108.403742,16.7389888 Z M61.8582484,52.6595933 L61.8582484,52.6595933 C60.134421,51.0369143 54.5432802,45.00029 54.5282156,35.4729689 C54.5282156,35.451448 54.5282156,35.451448 54.5282156,35.4299271 C54.5282156,20.6837775 66.9242782,11.5330729 78.4358302,11.5050957 C84.8404626,11.5050957 90.8555659,13.980004 95.4007889,18.5080102 C99.9352514,23.025256 102.41016,29.0704887 102.42092,35.5310755 L102.42092,91.117517 C102.42092,97.9913059 96.3132768,101.796342 92.0112405,101.796342 L36.1816124,101.796342 C29.8587596,101.817729 23.6349031,99.2438247 19.0767676,94.7029059 C15.9519268,91.5909777 12.2223475,86.1461793 12.211587,77.916571 C12.211587,71.5808057 14.770427,65.3612534 19.2747602,60.8569202 C23.7080743,56.4193019 29.6220292,53.9659145 35.9556425,53.9594582 C44.3896997,53.9594582 50.0518596,57.8762697 53.3208907,61.1689739 C53.3208907,61.1689739 55.4320951,63.273722 56.1315257,63.9516317 C55.6516087,65.1976942 55.1846043,66.8074607 55.1846043,69.0499429 C55.1846043,77.0105394 61.7484916,83.5141681 69.8016282,83.5529058 C73.6904624,83.5744267 77.1510299,82.1561966 79.8519082,79.4768393 C82.5958283,76.7458318 84.2357241,72.8376287 84.2357241,69.0133573 C84.2357241,65.3009948 82.5592427,61.3024037 79.8368435,58.5778524 C77.1617904,55.9135598 73.6603331,54.5103944 69.6875672,54.5125465 C67.5096479,54.5125465 65.6997366,55.1431101 64.72699,55.4723805 C64.2384646,54.9924635 61.8690089,52.6811143 61.8690089,52.6811143 L61.8582484,52.6595933 Z M114.209954,35.451448 C114.188571,29.1350515 116.685001,22.9004345 121.223767,18.3444511 C124.333543,15.2174582 129.799863,11.490031 138.016559,11.4771184 C144.35878,11.4771184 150.589093,14.0445668 155.082666,18.5424438 C159.520284,22.9736057 161.971519,28.9047774 161.973671,35.2383907 C161.973671,35.2383907 161.973671,35.2599116 161.973671,35.2599116 C161.973671,43.6767521 158.069772,49.3216952 154.772764,52.5756617 C154.772764,52.5756617 152.665864,54.6954745 151.98365,55.3819925 C150.741892,54.9235965 149.123517,54.4501357 146.889643,54.4458315 C138.941959,54.4458315 132.442634,61.0097189 132.403897,69.0714638 C132.403897,72.9516897 133.787693,76.4165614 136.467051,79.0959187 C139.193754,81.8398388 143.097653,83.4861909 146.928381,83.4926472 C146.928381,83.4926472 146.949902,83.4926472 146.949902,83.4926472 C150.66872,83.4926472 154.641486,81.798949 157.363886,79.080854 C160.028178,76.431626 161.418431,72.9344729 161.418431,68.9767717 C161.418431,68.9767717 161.418431,68.9552507 161.418431,68.9552507 C161.418431,66.792396 160.805084,64.9566597 160.480118,64.0032819 C160.957883,63.5083003 163.273536,61.1280841 163.273536,61.1280841 C164.906976,59.3999524 170.941448,53.8045075 180.451552,53.7894428 C195.236439,53.7679219 204.408665,66.1790492 204.436642,77.7035137 C204.436642,84.1016898 201.955278,90.1297057 197.425119,94.6792329 C192.912178,99.2093912 186.875553,101.761775 180.412815,101.770383 L124.834981,101.770383 C117.961193,101.770383 114.216549,95.5658957 114.212244,91.2574031 L114.212244,35.4449917 L114.209954,35.451448 Z M19.2101974,154.817354 C14.6606702,150.278587 12.0480278,144.067643 12.0371292,137.777072 L12.0371292,137.777072 C12.0157464,131.376743 14.5078715,125.346575 19.042334,120.803505 C23.5595798,116.26689 29.5875957,113.671464 36.0438783,113.662856 L91.6496887,113.662856 C98.5213255,113.662856 102.399399,119.910385 102.41016,124.21027 L102.41016,180.020529 C102.41016,186.347686 99.7695401,192.582303 95.2264692,197.140438 C92.1166931,200.265279 86.6718947,203.997011 78.4465907,204.003467 C65.2456447,204.003467 54.5002383,193.361361 54.4830216,180.246499 C54.4830216,180.224978 54.4830216,180.224978 54.4830216,180.203457 C54.4830216,171.808137 58.4041372,166.152434 61.6946893,162.883403 C61.6946893,162.883403 63.8058937,160.761438 64.4794992,160.079224 C65.7406264,160.541924 67.3439366,161.008929 69.5756583,161.015385 C77.5534716,161.015385 84.0355793,154.462258 84.0678607,146.396209 C84.0678607,142.520287 82.6862163,139.057568 80.0219236,136.373906 C77.2952202,133.629986 73.3741046,131.99009 69.5433769,131.97933 C65.846079,131.97933 61.8367275,133.651507 59.1100241,136.37821 C56.456492,139.042503 55.0382619,142.535352 55.0382619,146.493053 C55.0382619,146.493053 55.0382619,146.493053 55.0382619,146.514574 C55.0382619,148.679581 55.6623692,150.515317 56.0045522,151.460087 C55.5052663,151.965829 53.1939171,154.346045 53.1939171,154.346045 C51.5798465,156.06772 45.515245,161.673926 36.0072927,161.684686 C29.6284855,161.706207 23.6693366,159.257124 19.2101974,154.810897 L19.2101974,154.817354 Z M121.413152,196.908012 C116.885145,192.399375 114.216549,186.358446 114.210092,179.902164 L114.210092,124.307114 C114.210092,117.435477 120.541553,113.665008 124.850046,113.662818 L180.649545,113.662818 C192.169705,113.641335 204.617418,122.72102 204.638972,137.510212 C204.66046,150.702549 193.994681,161.45226 180.869059,161.473781 C172.430697,161.473781 166.772841,157.561274 163.525331,154.264265 C163.525331,154.264265 161.399062,152.153061 160.721152,151.464391 C161.173092,150.214024 161.640097,148.608562 161.640097,146.374688 L161.640097,146.374688 C161.640097,138.414092 155.08697,131.921223 147.023073,131.893246 C143.142847,131.871725 139.697344,133.277043 137.017987,135.934879 C134.276219,138.665887 132.625563,142.589154 132.614802,146.419882 C132.614802,150.125788 134.306348,154.130836 137.028747,156.855387 C139.686584,159.519679 143.185889,160.922845 147.158655,160.918541 C149.33227,160.918541 151.15079,160.298738 152.104167,159.960859 C152.601301,160.449384 154.970757,162.758581 154.970757,162.758581 C156.70104,164.385564 162.307246,170.422189 162.326615,179.947358 C162.326615,179.947358 162.326615,179.968879 162.326615,179.968879 C162.326615,194.727941 149.906879,203.895862 138.388871,203.917521 C132.005759,203.938904 125.964831,201.436018 121.413152,196.903708" fill="#E00000"></path>
</svg>